<?xml version="1.0" encoding="utf-8"?>
<!-- Generator: Adobe Illustrator 16.0.0, SVG Export Plug-In . SVG Version: 6.00 Build 0)  -->
<!DOCTYPE svg PUBLIC "-//W3C//DTD SVG 1.1//EN" "http://www.w3.org/Graphics/SVG/1.1/DTD/svg11.dtd">
<svg version="1.1" id="Layer_1" xmlns="http://www.w3.org/2000/svg" xmlns:xlink="http://www.w3.org/1999/xlink" x="0px" y="0px"
	 width="28.3px" height="20px" viewBox="0 0 28.3 20" enable-background="new 0 0 28.3 20" xml:space="preserve">
<g>
	<g>
		<path fill="#F1592B" d="M24.6,13c0.5-0.7,0.8-1.5,0.8-2.4V8.8c0-2.3-1.9-4.2-4.2-4.2c-2.3,0-4.2,1.9-4.2,4.2v1.7
			c0,2.3,1.9,4.2,4.2,4.2c0.8,0,1.6-0.2,2.3-0.7c2,0.9,3.3,2.8,3.3,5.1c0,0.4,0.3,0.8,0.8,0.8c0.4,0,0.8-0.3,0.8-0.8
			C28.3,16.6,26.8,14.2,24.6,13z M23.9,10.6c0,1.5-1.2,2.7-2.7,2.7c-1.5,0-2.7-1.2-2.7-2.7V8.8c0-1.5,1.2-2.7,2.7-2.7
			c1.5,0,2.7,1.2,2.7,2.7V10.6z M24.6,16.5c-0.2,0-0.4,0.2-0.4,0.4v2.3c0,0.2,0.2,0.4,0.4,0.4c0.2,0,0.4-0.2,0.4-0.4v-2.3
			C25,16.7,24.8,16.5,24.6,16.5z M13.4,11c0.7-0.9,1.2-2.1,1.2-3.3V5.4c0-3-2.4-5.4-5.4-5.4c-3,0-5.4,2.4-5.4,5.4v2.3
			c0,1.3,0.5,2.4,1.2,3.3c-3,1.5-5.1,4.6-5.1,8.2C0,19.6,0.3,20,0.8,20c0.4,0,0.8-0.3,0.8-0.8c0-3.2,1.9-5.9,4.7-7.1
			c0.9,0.6,1.9,0.9,3,0.9c1.1,0,2.1-0.3,3-0.9C15,13.3,17,16,17,19.2c0,0.4,0.3,0.8,0.8,0.8s0.8-0.3,0.8-0.8
			C18.5,15.6,16.4,12.6,13.4,11z M13.1,7.7c0,2.1-1.7,3.8-3.9,3.8c-2.1,0-3.9-1.7-3.9-3.8V5.4c0-2.1,1.7-3.8,3.9-3.8
			c2.1,0,3.9,1.7,3.9,3.8V7.7z M4.6,15.8c-0.2,0-0.4,0.2-0.4,0.4v3.1c0,0.2,0.2,0.4,0.4,0.4c0.2,0,0.4-0.2,0.4-0.4v-3.1
			C5,15.9,4.8,15.8,4.6,15.8z M13.9,15.8c-0.2,0-0.4,0.2-0.4,0.4v3.1c0,0.2,0.2,0.4,0.4,0.4s0.4-0.2,0.4-0.4v-3.1
			C14.3,15.9,14.1,15.8,13.9,15.8z M9.2,2.7c-1.5,0-2.7,1.2-2.7,2.7c0,0.2,0.2,0.4,0.4,0.4c0.2,0,0.4-0.2,0.4-0.4
			c0-1.1,0.9-1.9,1.9-1.9c0.2,0,0.4-0.2,0.4-0.4C9.6,2.9,9.5,2.7,9.2,2.7z"/>
	</g>
</g>
</svg>
