<svg xmlns="http://www.w3.org/2000/svg" width="28.3" height="20" viewBox="0 0 28.3 20"><path fill="#F1592B" d="M24.6 13c.5-.7.8-1.5.8-2.4V8.8c0-2.3-1.9-4.2-4.2-4.2-2.3 0-4.2 1.9-4.2 4.2v1.7c0 2.3 1.9 4.2 4.2 4.2.8 0 1.6-.2 2.3-.7 2 .9 3.3 2.8 3.3 5.1 0 .4.3.8.8.8.4 0 .8-.3.8-.8-.1-2.5-1.6-4.9-3.8-6.1zm-.7-2.4c0 1.5-1.2 2.7-2.7 2.7-1.5 0-2.7-1.2-2.7-2.7V8.8c0-1.5 1.2-2.7 2.7-2.7 1.5 0 2.7 1.2 2.7 2.7v1.8zm.7 5.9c-.2 0-.4.2-.4.4v2.3c0 .2.2.4.4.4s.4-.2.4-.4v-2.3c0-.2-.2-.4-.4-.4zM13.4 11c.7-.9 1.2-2.1 1.2-3.3V5.4c0-3-2.4-5.4-5.4-5.4-3 0-5.4 2.4-5.4 5.4v2.3c0 1.3.5 2.4 1.2 3.3-3 1.5-5.1 4.6-5.1 8.2.1.4.4.8.9.8.4 0 .8-.3.8-.8 0-3.2 1.9-5.9 4.7-7.1.9.6 1.9.9 3 .9s2.1-.3 3-.9C15 13.3 17 16 17 19.2c0 .4.3.8.8.8s.8-.3.8-.8c-.1-3.6-2.2-6.6-5.2-8.2zm-.3-3.3c0 2.1-1.7 3.8-3.9 3.8-2.1 0-3.9-1.7-3.9-3.8V5.4c0-2.1 1.7-3.8 3.9-3.8 2.1 0 3.9 1.7 3.9 3.8v2.3zm-8.5 8.1c-.2 0-.4.2-.4.4v3.1c0 .2.2.4.4.4s.4-.2.4-.4v-3.1c0-.3-.2-.4-.4-.4zm9.3 0c-.2 0-.4.2-.4.4v3.1c0 .2.2.4.4.4s.4-.2.4-.4v-3.1c0-.3-.2-.4-.4-.4zM9.2 2.7c-1.5 0-2.7 1.2-2.7 2.7 0 .2.2.4.4.4s.4-.2.4-.4c0-1.1.9-1.9 1.9-1.9.2 0 .4-.2.4-.4s-.1-.4-.4-.4z"/></svg>